<?xml version="1.0" encoding="UTF-8"?>
<svg version="1.1" xmlns="http://www.w3.org/2000/svg" width="500" height="500">
<path d="M0 0 C1.2590918 -0.00177246 2.51818359 -0.00354492 3.81542969 -0.00537109 C16.39548852 0.14490265 28.63892723 1.61982812 40.75 5.0625 C41.68231445 5.32450195 42.61462891 5.58650391 43.57519531 5.85644531 C59.48155187 10.44679761 73.73479765 16.88843035 87.9375 25.375 C89.07590332 26.04160645 89.07590332 26.04160645 90.23730469 26.72167969 C90.97110352 27.16157227 91.70490234 27.60146484 92.4609375 28.0546875 C93.46133057 28.64999268 93.46133057 28.64999268 94.48193359 29.25732422 C94.96227051 29.62615723 95.44260742 29.99499023 95.9375 30.375 C95.9375 31.035 95.9375 31.695 95.9375 32.375 C96.700625 32.66375 97.46375 32.9525 98.25 33.25 C100.9375 34.375 100.9375 34.375 103.9375 36.375 C103.9375 37.035 103.9375 37.695 103.9375 38.375 C104.73994141 38.70564453 104.73994141 38.70564453 105.55859375 39.04296875 C120.7211994 47.53303201 132.1957984 64.83923866 140.9375 79.375 C141.62714844 80.49648437 142.31679688 81.61796875 143.02734375 82.7734375 C150.55292984 95.39793317 156.33698812 109.11202805 159.9375 123.375 C160.11941895 124.05868652 160.30133789 124.74237305 160.48876953 125.44677734 C166.81616299 150.1198678 167.12692724 180.86339571 159.9375 205.375 C159.70724121 206.16583984 159.47698242 206.95667969 159.23974609 207.77148438 C157.66063873 213.04576652 155.87519017 218.22259452 153.9375 223.375 C153.53660156 224.45007813 153.13570313 225.52515625 152.72265625 226.6328125 C146.53823297 242.25004301 137.65245892 256.26045376 127.5625 269.625 C127.13340332 270.19879395 126.70430664 270.77258789 126.26220703 271.36376953 C125.20304504 272.74004589 124.07569175 274.0633292 122.9375 275.375 C122.2775 275.375 121.6175 275.375 120.9375 275.375 C120.9375 276.035 120.9375 276.695 120.9375 277.375 C120.2775 277.375 119.6175 277.375 118.9375 277.375 C118.9375 278.035 118.9375 278.695 118.9375 279.375 C118.2775 279.375 117.6175 279.375 116.9375 279.375 C116.9375 280.035 116.9375 280.695 116.9375 281.375 C116.2775 281.375 115.6175 281.375 114.9375 281.375 C114.9375 282.035 114.9375 282.695 114.9375 283.375 C114.2775 283.375 113.6175 283.375 112.9375 283.375 C112.9375 284.035 112.9375 284.695 112.9375 285.375 C112.2775 285.375 111.6175 285.375 110.9375 285.375 C110.9375 286.035 110.9375 286.695 110.9375 287.375 C108.84974651 289.18899907 106.75678179 290.88585952 104.5625 292.5625 C103.6039209 293.30342896 103.6039209 293.30342896 102.62597656 294.05932617 C97.50536736 297.99356242 92.32430582 301.81100221 86.9375 305.375 C86.23367188 305.85066406 85.52984375 306.32632812 84.8046875 306.81640625 C65.27988539 319.30003408 42.75374374 326.15982529 19.93359375 329.10864258 C18.13157474 329.3491028 16.33650279 329.64029758 14.54296875 329.9375 C-26.13651965 334.87368928 -68.2318968 320.6065517 -101 296.9375 C-102.010625 296.091875 -103.02125 295.24625 -104.0625 294.375 C-104.0625 293.715 -104.0625 293.055 -104.0625 292.375 C-104.64644531 292.10816406 -105.23039062 291.84132813 -105.83203125 291.56640625 C-109.75259618 289.47223409 -112.81602585 286.37885508 -116.0625 283.375 C-116.76632813 282.7253125 -117.47015625 282.075625 -118.1953125 281.40625 C-128.02586519 271.96328182 -136.03996282 261.01996671 -143.0625 249.375 C-143.56136719 248.60285156 -144.06023437 247.83070313 -144.57421875 247.03515625 C-156.1728072 228.73922013 -161.86270071 207.59956798 -165.0625 186.375 C-165.23378418 185.44526367 -165.40506836 184.51552734 -165.58154297 183.55761719 C-169.27460138 159.1196936 -165.47232531 132.40308049 -157.0625 109.375 C-156.64484375 108.18519531 -156.2271875 106.99539062 -155.796875 105.76953125 C-149.40432085 88.63087315 -140.08774592 72.19534684 -128.0625 58.375 C-127.4025 58.375 -126.7425 58.375 -126.0625 58.375 C-125.7938916 57.78187012 -125.5252832 57.18874023 -125.24853516 56.57763672 C-124.05729783 54.36533882 -122.85136293 52.90582184 -121.0859375 51.1328125 C-120.50102539 50.54387207 -119.91611328 49.95493164 -119.31347656 49.34814453 C-118.6944043 48.73825684 -118.07533203 48.12836914 -117.4375 47.5 C-116.80811523 46.87593262 -116.17873047 46.25186523 -115.53027344 45.60888672 C-104.06326955 34.375 -104.06326955 34.375 -100.0625 34.375 C-100.0625 33.715 -100.0625 33.055 -100.0625 32.375 C-96.59319368 29.75531971 -92.78644654 27.61199969 -89.0625 25.375 C-87.97839844 24.71757813 -86.89429688 24.06015625 -85.77734375 23.3828125 C-59.3611658 7.79393137 -30.68418678 0.02512504 0 0 Z " fill="#02795D" transform="translate(251.0625,84.625)"/>
<path d="M0 0 C3.03926912 2.40140256 4.78968679 5.18884994 6.68334961 8.52758789 C7.08457031 9.2067627 7.48579102 9.8859375 7.89916992 10.58569336 C8.77525016 12.07569598 9.64308416 13.57057041 10.50366211 15.06958008 C12.06366068 17.7516268 13.68305447 20.39245722 15.30834961 23.03540039 C16.43495942 24.90682805 17.55997997 26.77921345 18.68334961 28.65258789 C19.23345703 29.54075195 19.78356445 30.42891602 20.3503418 31.34399414 C24.0458385 37.6462429 24.0458385 37.6462429 23.53100586 41.67993164 C22.74016602 43.08952148 22.74016602 43.08952148 21.93334961 44.52758789 C21.2978418 45.68129883 20.66233398 46.83500977 20.00756836 48.02368164 C19.2170034 49.34050328 18.42108665 50.65412151 17.62084961 51.96508789 C13.39684095 59.00457832 9.32285502 66.11665703 5.30834961 73.27758789 C1.22421841 80.54848018 -2.9606381 87.711141 -7.38305664 94.78149414 C-9.52289944 98.27177137 -11.47354411 101.84361343 -13.41040039 105.44946289 C-19.90749364 117.5242494 -26.70150329 129.43574315 -33.50415039 141.34008789 C-33.85684998 141.95753876 -34.20954956 142.57498962 -34.57293701 143.21115112 C-35.58960567 144.99024726 -36.60720543 146.76880668 -37.62524414 148.54711914 C-38.21619873 149.5794165 -38.80715332 150.61171387 -39.41601562 151.67529297 C-39.9607251 152.61655029 -40.50543457 153.55780762 -41.06665039 154.52758789 C-41.59339355 155.44854248 -42.12013672 156.36949707 -42.6628418 157.31835938 C-44.23771365 159.79679684 -45.35940089 160.57958236 -48.00415039 161.77758789 C-48.67317383 162.09211914 -49.34219727 162.40665039 -50.03149414 162.73071289 C-53.38239052 164.04277212 -56.47198006 164.65212346 -60.06567383 164.73632812 C-60.84038025 164.75561874 -61.61508667 164.77490936 -62.41326904 164.79478455 C-65.94839138 164.85302489 -69.48332362 164.90179542 -73.01879883 164.93261719 C-74.87706095 164.95418341 -76.73522186 164.98827027 -78.59301758 165.03515625 C-81.28780955 165.1024542 -83.98050957 165.12966143 -86.67602539 165.14868164 C-87.49713806 165.1765123 -88.31825073 165.20434296 -89.16424561 165.23301697 C-94.85428619 165.21296521 -98.03164583 163.71692281 -102.45147705 160.16004944 C-105.72123632 156.8552919 -106.87754218 153.40801605 -107.34399414 148.76977539 C-106.9971946 144.71563993 -105.51031401 141.68238725 -103.62915039 138.15258789 C-103.26499023 137.44980713 -102.90083008 136.74702637 -102.52563477 136.02294922 C-101.38944113 133.84840085 -100.23257647 131.68632223 -99.06665039 129.52758789 C-98.7352002 128.91157715 -98.40375 128.29556641 -98.06225586 127.66088867 C-92.74458552 117.85417137 -86.9850688 108.29961668 -81.27566528 98.71810913 C-75.87654159 89.65531129 -70.60921546 80.52613078 -65.49145508 71.30078125 C-62.97738598 66.79437545 -60.37128564 62.39386595 -57.57055664 58.05883789 C-54.1149871 52.68875992 -51.07653295 47.1558697 -48.06665039 41.52758789 C-45.6004272 37.02042313 -43.11503623 32.52393073 -40.62915039 28.02758789 C-39.99944336 26.88161133 -39.36973633 25.73563477 -38.72094727 24.55493164 C-25.22822869 0.17651514 -25.22822869 0.17651514 -17.75415039 -2.78491211 C-10.25153138 -4.18370548 -6.31907245 -4.14129236 0 0 Z " fill="#43AA8A" transform="translate(262.066650390625,162.472412109375)"/>
<path d="M0 0 C6.38645588 5.64955712 10.29626374 13.41505466 14.265625 20.83203125 C16.66559378 25.215758 19.20987558 29.50853402 21.75585938 33.80859375 C24.37343689 38.23179712 26.9707367 42.66578419 29.546875 47.11328125 C30.15982422 48.1700708 30.77277344 49.22686035 31.40429688 50.31567383 C32.60572309 52.38845189 33.80505267 54.4624471 35.00195312 56.5378418 C38.0632096 61.81200712 41.22048462 66.95720483 44.69287109 71.97167969 C46.10451565 74.1621808 47.24830945 76.40165749 48.375 78.75 C50.94067892 84.09028936 54.05255154 89.03086963 57.23046875 94.01953125 C60.81200822 100.05201384 61.89475152 105.03212254 61 112 C58.6704397 116.83831756 55.79876079 119.6006196 51 122 C44.861 122.53772263 41.01558313 121.52676391 35.6875 118.375 C35.03942383 118.01035645 34.39134766 117.64571289 33.72363281 117.27001953 C32.41731202 116.53428676 31.1146363 115.79203978 29.81591797 115.04296875 C27.31818394 113.60840035 24.78494697 112.24248932 22.25 110.875 C19.63458801 109.4442158 17.02041272 108.01119011 14.40625 106.578125 C11.60701484 105.04677871 8.80444233 103.52179041 6 102 C5.10909668 101.51563477 5.10909668 101.51563477 4.20019531 101.02148438 C2.26048653 99.96886775 0.31804563 98.92144245 -1.625 97.875 C-2.2221582 97.55031738 -2.81931641 97.22563477 -3.43457031 96.89111328 C-4.64688505 96.24069156 -5.8667188 95.60412469 -7.09301758 94.98046875 C-8.37510567 94.32128737 -9.63862012 93.62479928 -10.8815918 92.89453125 C-18.33041192 88.92325058 -26.34445696 89.32801653 -34.5625 89.25 C-36.06318476 89.22179225 -37.56383811 89.19185823 -39.06445312 89.16015625 C-42.70948832 89.08686442 -46.35439394 89.03694333 -50 89 C-48.79185669 85.10721132 -47.40898634 81.65530862 -45.3828125 78.12109375 C-44.86452881 77.21085449 -44.34624512 76.30061523 -43.81225586 75.36279297 C-43.25546143 74.39744629 -42.69866699 73.43209961 -42.125 72.4375 C-41.54564697 71.42316895 -40.96629395 70.40883789 -40.36938477 69.36376953 C-39.16831932 67.26219086 -37.96493236 65.16193733 -36.75927734 63.06298828 C-35.1326862 60.23101319 -33.51210014 57.39572925 -31.89453125 54.55859375 C-29.92363384 51.1024058 -27.94970331 47.64798636 -25.97265625 44.1953125 C-23.95528491 40.67173484 -21.94260025 37.14554104 -19.93359375 33.6171875 C-15.10254625 25.13635658 -10.25124571 16.66868404 -5.3125 8.25 C-4.8901709 7.52844727 -4.4678418 6.80689453 -4.03271484 6.06347656 C-1.12207791 1.12207791 -1.12207791 1.12207791 0 0 Z " fill="#015642" transform="translate(285,204)"/>
<path d="M0 0 C0.33 0.99 0.66 1.98 1 3 C0.071875 3.598125 -0.85625 4.19625 -1.8125 4.8125 C-6.56766702 8.03168022 -6.56766702 8.03168022 -9 13 C-9.99 13.33 -10.98 13.66 -12 14 C-12.73323796 16.01508358 -12.73323796 16.01508358 -13 18 C-13.66 18 -14.32 18 -15 18 C-15.33 18.66 -15.66 19.32 -16 20 C-19.0625 20.625 -19.0625 20.625 -22 21 C-22.33 21.99 -22.66 22.98 -23 24 C-25.0625 25.6875 -25.0625 25.6875 -27 27 C-27.66 26.34 -28.32 25.68 -29 25 C-13.88190809 9.49970913 -13.88190809 9.49970913 -7 5 C-6.34 5 -5.68 5 -5 5 C-5 4.34 -5 3.68 -5 3 C-2.5 1.375 -2.5 1.375 0 0 Z " fill="#227F66" transform="translate(156,114)"/>
<path d="M0 0 C1.69141656 0.08963062 3.37959602 0.24577676 5.0625 0.4375 C6.44115234 0.59025391 6.44115234 0.59025391 7.84765625 0.74609375 C8.55792969 0.82988281 9.26820313 0.91367187 10 1 C10 1.33 10 1.66 10 2 C6.9792686 2.47981648 3.95841979 2.95887232 0.9375 3.4375 C-0.33383789 3.63956055 -0.33383789 3.63956055 -1.63085938 3.84570312 C-3.31535395 4.11236057 -5.00033579 4.37595814 -6.68579102 4.63647461 C-8.59570477 4.93649166 -10.50163489 5.26175287 -12.40625 5.59375 C-17.42407732 6.16098265 -22.39272807 6.10516886 -27.4375 6.0625 C-28.45521484 6.05798828 -29.47292969 6.05347656 -30.52148438 6.04882812 C-33.01438509 6.03712437 -35.50716074 6.02072848 -38 6 C-38 5.67 -38 5.34 -38 5 C-31.07 5 -24.14 5 -17 5 C-17 4.34 -17 3.68 -17 3 C-12.68193184 1.56064395 -8.36075802 1.56092986 -3.8359375 1.28125 C-1.10130637 1.31259668 -1.10130637 1.31259668 0 0 Z " fill="#66A28E" transform="translate(278,409)"/>
<path d="M0 0 C4.48797672 0.11361966 8.59343164 1.0679683 12.90625 2.25 C13.99679687 2.53617187 13.99679687 2.53617187 15.109375 2.828125 C16.87731531 3.29337245 18.64213933 3.77043593 20.40625 4.25 C17.63433254 6.09794497 15.59690869 7.35958362 12.40625 8.25 C9.22741389 7.53638373 7.04200007 6.77979173 4.53125 4.6875 C1.30855779 2.50744351 -1.74364343 2.57084221 -5.59375 2.25 C-3.59375 0.25 -3.59375 0.25 0 0 Z " fill="#197C63" transform="translate(276.59375,86.75)"/>
<path d="M0 0 C0.33 0.99 0.66 1.98 1 3 C0.071875 3.598125 -0.85625 4.19625 -1.8125 4.8125 C-6.56766702 8.03168022 -6.56766702 8.03168022 -9 13 C-11.06640625 13.73046875 -11.06640625 13.73046875 -13.5625 14.1875 C-14.38878906 14.34605469 -15.21507812 14.50460938 -16.06640625 14.66796875 C-16.70449219 14.77753906 -17.34257812 14.88710937 -18 15 C-14.50794062 11.40523299 -10.95966325 8.07973809 -7 5 C-6.34 5 -5.68 5 -5 5 C-5 4.34 -5 3.68 -5 3 C-2.5 1.375 -2.5 1.375 0 0 Z " fill="#388771" transform="translate(156,114)"/>
<path d="M0 0 C0.66 0 1.32 0 2 0 C2 2.64 2 5.28 2 8 C2.99 8.33 3.98 8.66 5 9 C3.296875 9.7109375 3.296875 9.7109375 1 10 C-1.359375 8.6015625 -1.359375 8.6015625 -3.75 6.625 C-4.94882813 5.65433594 -4.94882813 5.65433594 -6.171875 4.6640625 C-6.77515625 4.11492187 -7.3784375 3.56578125 -8 3 C-8 2.67 -8 2.34 -8 2 C-6.865625 1.855625 -5.73125 1.71125 -4.5625 1.5625 C-1.19222799 1.38828522 -1.19222799 1.38828522 0 0 Z " fill="#207F67" transform="translate(157,377)"/>
<path d="M0 0 C1.32 0.33 2.64 0.66 4 1 C4 1.66 4 2.32 4 3 C4.66 3.33 5.32 3.66 6 4 C6 4.66 6 5.32 6 6 C6.99 6 7.98 6 9 6 C9.33 6.99 9.66 7.98 10 9 C4.18738629 7.26017005 -0.83169994 5.1889511 -6 2 C-2.25 0.875 -2.25 0.875 0 2 C0 1.34 0 0.68 0 0 Z " fill="#248368" transform="translate(176,392)"/>
<path d="M0 0 C6.29330815 4.19553877 9.36753986 9.98010629 12 17 C12.1640625 19.875 12.1640625 19.875 12 22 C9.75762789 19.75762789 8.61443271 17.61000963 7.125 14.8125 C5.34377315 11.48579692 3.54421992 8.18646515 1.625 4.9375 C0 2 0 2 0 0 Z " fill="#0E745B" transform="translate(334,284)"/>
<path d="M0 0 C5.94 0.33 11.88 0.66 18 1 C18 1.99 18 2.98 18 4 C20.31 4 22.62 4 25 4 C25 4.33 25 4.66 25 5 C18.97512156 5.21908649 13.82450494 4.49398047 8 3 C7.22527344 2.80921875 6.45054687 2.6184375 5.65234375 2.421875 C3.76617601 1.95615457 1.88277506 1.47925183 0 1 C0 0.67 0 0.34 0 0 Z " fill="#458A78" transform="translate(206,408)"/>
<path d="M0 0 C2.31 0 4.62 0 7 0 C4.1237651 2.3223428 1.36219578 3.86565842 -2.0625 5.25 C-2.91972656 5.60578125 -3.77695312 5.9615625 -4.66015625 6.328125 C-7 7 -7 7 -10 6 C-9.34 5.34 -8.68 4.68 -8 4 C-6.68 4 -5.36 4 -4 4 C-4 3.34 -4 2.68 -4 2 C-2.68 2 -1.36 2 0 2 C0 1.34 0 0.68 0 0 Z " fill="#398974" transform="translate(317,397)"/>
<path d="M0 0 C2.171875 0.37109375 2.171875 0.37109375 4 1 C3.04956626 2.33897583 2.08940853 3.67105427 1.125 5 C0.59132813 5.7425 0.05765625 6.485 -0.4921875 7.25 C-0.98976563 7.8275 -1.48734375 8.405 -2 9 C-2.66 9 -3.32 9 -4 9 C-4.33 9.66 -4.66 10.32 -5 11 C-5.47877076 6.88257146 -5.32165374 5.41993683 -2.75 2.0625 C-1.8425 1.381875 -0.935 0.70125 0 0 Z " fill="#31836D" transform="translate(376,351)"/>
<path d="M0 0 C0.33 0.99 0.66 1.98 1 3 C0.01 4.485 0.01 4.485 -1 6 C-1.66 6 -2.32 6 -3 6 C-3.12375 6.763125 -3.2475 7.52625 -3.375 8.3125 C-4 11 -4 11 -6 14 C-6.66 14 -7.32 14 -8 14 C-6.6744419 10.37723685 -5.05653045 7.36494652 -2.875 4.1875 C-2.33617188 3.39730469 -1.79734375 2.60710937 -1.2421875 1.79296875 C-0.83226563 1.20128906 -0.42234375 0.60960937 0 0 Z " fill="#4F907C" transform="translate(115,154)"/>
<path d="M0 0 C4.34925334 0.09558799 8.2027095 1.057917 12.375 2.25 C12.375 2.58 12.375 2.91 12.375 3.25 C10.89668779 3.44412181 9.41730684 3.63012131 7.9375 3.8125 C7.11378906 3.91691406 6.29007812 4.02132812 5.44140625 4.12890625 C4.75949219 4.16886719 4.07757813 4.20882812 3.375 4.25 C3.045 3.92 2.715 3.59 2.375 3.25 C1.02752916 3.01924918 -0.32877565 2.83846937 -1.6875 2.6875 C-2.986875 2.543125 -4.28625 2.39875 -5.625 2.25 C-3.625 0.25 -3.625 0.25 0 0 Z " fill="#428B77" transform="translate(276.625,86.75)"/>
<path d="M0 0 C1.1875 1.625 1.1875 1.625 2 4 C0.625 7.25 0.625 7.25 -1 10 C-3.12508244 6.81237635 -3.5020163 4.73487777 -4 1 C-2.68 0.67 -1.36 0.34 0 0 Z " fill="#207E68" transform="translate(397,318)"/>
<path d="M0 0 C2.43841124 2.43841124 2.76152751 4.18566115 3.625 7.5 C4.01558594 8.96953125 4.01558594 8.96953125 4.4140625 10.46875 C5 13 5 13 5 15 C4.01 15 3.02 15 2 15 C1.66223316 13.2508503 1.32996329 11.50063855 1 9.75 C0.814375 8.77546875 0.62875 7.8009375 0.4375 6.796875 C0 4 0 4 0 0 Z " fill="#3A8470" transform="translate(405,193)"/>
<path d="M0 0 C2.93200474 2.85276137 5.64315404 5.65079784 8 9 C3.75177626 8.52797514 1.80010291 6.03344482 -1 3 C-0.67 2.01 -0.34 1.02 0 0 Z " fill="#37896B" transform="translate(369,135)"/>
<path d="M0 0 C2 1 2 1 3.0703125 3.94140625 C3.41835937 5.13636719 3.76640625 6.33132813 4.125 7.5625 C4.47820312 8.76003906 4.83140625 9.95757812 5.1953125 11.19140625 C5.46085937 12.11824219 5.72640625 13.04507812 6 14 C5.34 14.66 4.68 15.32 4 16 C3.32815382 13.89748139 2.66269032 11.79292237 2 9.6875 C1.443125 7.92986328 1.443125 7.92986328 0.875 6.13671875 C0 3 0 3 0 0 Z " fill="#3E8C76" transform="translate(90,288)"/>
<path d="M0 0 C3.47132095 1.40929697 4.88093274 2.90605083 6.75 6.125 C7.39195313 7.21167969 7.39195313 7.21167969 8.046875 8.3203125 C8.51867187 9.15175781 8.51867187 9.15175781 9 10 C8.01 10 7.02 10 6 10 C4.39453125 8.06640625 4.39453125 8.06640625 2.8125 5.5625 C2.28269531 4.73878906 1.75289063 3.91507812 1.20703125 3.06640625 C0 1 0 1 0 0 Z " fill="#488B79" transform="translate(112,339)"/>
<path d="M0 0 C0.66 0.33 1.32 0.66 2 1 C-0.475 5.455 -0.475 5.455 -3 10 C-3.33 10 -3.66 10 -4 10 C-4 7.36 -4 4.72 -4 2 C-2.68 2 -1.36 2 0 2 C0 1.34 0 0.68 0 0 Z " fill="#2B8069" transform="translate(393,328)"/>
<path d="M0 0 C3.9036874 3.46994436 6.36588975 7.55224006 9 12 C8.34 12.66 7.68 13.32 7 14 C5.82807953 12.04480616 4.6626071 10.0857461 3.5 8.125 C2.8503125 7.03445312 2.200625 5.94390625 1.53125 4.8203125 C0 2 0 2 0 0 Z " fill="#14765F" transform="translate(309,241)"/>
<path d="M0 0 C0.99 0 1.98 0 3 0 C1.93204565 4.50066475 0.85961414 8.7494534 -1 13 C-1.33 13 -1.66 13 -2 13 C-1.39174965 8.65535464 -0.73832608 4.32448133 0 0 Z " fill="#2F7D67" transform="translate(405,297)"/>
<path d="M0 0 C0.66 0 1.32 0 2 0 C3.03290841 1.93108963 4.05098672 3.870118 5.0625 5.8125 C5.63097656 6.89144531 6.19945312 7.97039062 6.78515625 9.08203125 C8 12 8 12 7 15 C5.82823482 12.87767021 4.66245215 10.75242209 3.5 8.625 C3.16613281 8.02171875 2.83226562 7.4184375 2.48828125 6.796875 C0 2.2265625 0 2.2265625 0 0 Z " fill="#0E735B" transform="translate(318,256)"/>
<path d="M0 0 C0.79921875 0.01804687 1.5984375 0.03609375 2.421875 0.0546875 C3.02515625 0.07789063 3.6284375 0.10109375 4.25 0.125 C1.53060541 1.5826935 -0.99754273 2.54942664 -4 3.25 C-5.2375 3.53875 -6.475 3.8275 -7.75 4.125 C-8.08 3.465 -8.41 2.805 -8.75 2.125 C-5.68753253 0.34090198 -3.52920727 -0.10380021 0 0 Z " fill="#398672" transform="translate(303.75,403.875)"/>
<path d="M0 0 C0.33 0.66 0.66 1.32 1 2 C1.66 2.33 2.32 2.66 3 3 C0.03 5.475 0.03 5.475 -3 8 C-3.66 7.67 -4.32 7.34 -5 7 C-3.35 4.69 -1.7 2.38 0 0 Z " fill="#2E836C" transform="translate(121,146)"/>
<path d="M0 0 C3.36720387 1.39332574 4.9859524 2.9789286 7 6 C4.03 5.505 4.03 5.505 1 5 C0.67 3.35 0.34 1.7 0 0 Z " fill="#408B75" transform="translate(362,129)"/>
<path d="M0 0 C1.65 0 3.3 0 5 0 C5 0.66 5 1.32 5 2 C5.99 2 6.98 2 8 2 C8.33 2.99 8.66 3.98 9 5 C6.03 4.01 3.06 3.02 0 2 C0 1.34 0 0.68 0 0 Z " fill="#3C856E" transform="translate(177,396)"/>
<path d="M0 0 C0.66 0.99 1.32 1.98 2 3 C1.125 6.1875 1.125 6.1875 0 9 C-0.66 9 -1.32 9 -2 9 C-2.33 9.99 -2.66 10.98 -3 12 C-2.40075776 7.80530429 -1.42500059 3.99000166 0 0 Z " fill="#539581" transform="translate(94,194)"/>
<path d="M0 0 C1.670625 0.061875 1.670625 0.061875 3.375 0.125 C1.89 2.105 1.89 2.105 0.375 4.125 C-1.605 3.465 -3.585 2.805 -5.625 2.125 C-3.625 0.125 -3.625 0.125 0 0 Z " fill="#207E66" transform="translate(190.625,96.875)"/>
<path d="M0 0 C2.50037734 2.17424117 3.43628586 3.73045798 4 7 C2.68 6.67 1.36 6.34 0 6 C-0.38218767 4.34385343 -0.71395102 2.67542976 -1 1 C-0.67 0.67 -0.34 0.34 0 0 Z " fill="#31806A" transform="translate(396,173)"/>
<path d="M0 0 C3.3 0.33 6.6 0.66 10 1 C10 1.33 10 1.66 10 2 C6.7 2.33 3.4 2.66 0 3 C0 2.01 0 1.02 0 0 Z " fill="#3D8870" transform="translate(278,409)"/>
<path d="M0 0 C3.77545388 1.09068668 6.47043472 1.9083091 9 5 C8.01 5.33 7.02 5.66 6 6 C6 5.34 6 4.68 6 4 C4.35 3.67 2.7 3.34 1 3 C0.67 2.01 0.34 1.02 0 0 Z " fill="#448D77" transform="translate(330,106)"/>
<path d="M0 0 C0.66 0.66 1.32 1.32 2 2 C1.67 2.66 1.34 3.32 1 4 C-1.64 3.34 -4.28 2.68 -7 2 C-7 1.67 -7 1.34 -7 1 C-3.625 0.375 -3.625 0.375 0 0 Z " fill="#2F886E" transform="translate(193,400)"/>
<path d="M0 0 C0.66 0.33 1.32 0.66 2 1 C1 3 1 3 -2 5 C-2.99 5 -3.98 5 -5 5 C-4.1875 3.0625 -4.1875 3.0625 -3 1 C-2.01 0.67 -1.02 0.34 0 0 Z " fill="#2B8064" transform="translate(171,105)"/>
<path d="M0 0 C-2.31 0 -4.62 0 -7 0 C-7 0.66 -7 1.32 -7 2 C-7.99 2 -8.98 2 -10 2 C-9.67 1.01 -9.34 0.02 -9 -1 C-5.22102349 -2.0497157 -3.35080929 -2.10976881 0 0 Z " fill="#087358" transform="translate(324,397)"/>
<path d="M0 0 C0.66 0 1.32 0 2 0 C1.25 4.75 1.25 4.75 -1 7 C-1.33 5.35 -1.66 3.7 -2 2 C-1.34 2 -0.68 2 0 2 C0 1.34 0 0.68 0 0 Z " fill="#408D7B" transform="translate(401,311)"/>
<path d="M0 0 C1.85776765 3.13498292 2.20140476 5.37471432 2 9 C1.01 9.495 1.01 9.495 0 10 C-1.125 3.375 -1.125 3.375 0 0 Z " fill="#2A8167" transform="translate(412,221)"/>
</svg>
